<?xml version="1.0" encoding="UTF-8"?>
<svg version="1.1" xmlns="http://www.w3.org/2000/svg" width="1920" height="1080">
<path d="M0 0 C6.30547703 5.09623204 12.24502557 10.5503675 18.0715332 16.18383789 C18.72476562 16.81515625 19.37799805 17.44647461 20.05102539 18.09692383 C28.24535724 26.05988631 36.16230246 34.05604682 43.0715332 43.18383789 C43.48677246 43.72266602 43.90201172 44.26149414 44.32983398 44.81665039 C66.0458727 73.06412619 83.04594953 106.05591953 90.0715332 141.18383789 C97.6615332 141.51383789 105.2515332 141.84383789 113.0715332 142.18383789 C113.0715332 143.50383789 113.0715332 144.82383789 113.0715332 146.18383789 C131.2215332 146.18383789 149.3715332 146.18383789 168.0715332 146.18383789 C167.95292637 133.5288594 167.95292637 133.5288594 167.80126953 120.87426758 C167.79250558 119.28475549 167.78486143 117.69523666 167.77856445 116.10571289 C167.7555426 114.87328857 167.7555426 114.87328857 167.73205566 113.6159668 C167.73045134 110.11426228 167.73446503 107.81580206 169.40234375 104.6887207 C173.12527595 101.33225528 177.75607351 102.05560986 182.45825195 102.08618164 C183.27526077 102.08759659 184.09226959 102.08901154 184.93403625 102.09046936 C187.54240588 102.09606495 190.15068954 102.1086166 192.7590332 102.12133789 C194.52791217 102.12635346 196.29679249 102.13091627 198.06567383 102.13500977 C202.40102002 102.14518186 206.73618042 102.1647581 211.0715332 102.18383789 C211.0715332 92.94383789 211.0715332 83.70383789 211.0715332 74.18383789 C202.97882275 74.30240054 202.97882275 74.30240054 194.88671875 74.45410156 C193.87907471 74.46159424 192.87143066 74.46908691 191.83325195 74.47680664 C190.28577271 74.50037231 190.28577271 74.50037231 188.70703125 74.52441406 C186.0715332 74.18383789 186.0715332 74.18383789 184.27392578 72.79052734 C181.6717027 69.31332326 181.8939587 66.12890634 181.8684082 61.94555664 C181.86270813 61.22777542 181.85700806 60.5099942 181.85113525 59.77046204 C181.84168368 58.24982172 181.83515064 56.72916091 181.83129883 55.20849609 C181.82161396 52.890664 181.7906024 50.57372664 181.7590332 48.25610352 C181.75250083 46.77759315 181.74725128 45.29907644 181.7434082 43.82055664 C181.7310614 43.13080246 181.7187146 42.44104828 181.70599365 41.73039246 C181.72631378 37.30323045 182.04674207 34.4766647 185.0715332 31.18383789 C188.51901735 30.40744073 191.94203694 30.52251819 195.4621582 30.56860352 C196.53067017 30.5630545 197.59918213 30.55750549 198.70007324 30.55178833 C202.24101243 30.53995305 205.78068302 30.56430802 209.3215332 30.59008789 C211.77628521 30.59179798 214.23103905 30.59173434 216.68579102 30.58996582 C221.83408035 30.59162128 226.98193541 30.61036168 232.13012695 30.6418457 C238.73821506 30.68152353 245.34573384 30.68589229 251.95391846 30.67838287 C257.02389771 30.67531727 262.09374832 30.68741919 267.16369629 30.70451355 C269.60061842 30.71155838 272.03755514 30.7146663 274.4744873 30.71382141 C277.87689704 30.71561372 281.27861726 30.73694781 284.6809082 30.76391602 C286.20053162 30.75952011 286.20053162 30.75952011 287.75085449 30.7550354 C288.67619995 30.76638519 289.60154541 30.77773499 290.55493164 30.78942871 C291.35944763 30.79315742 292.16396362 30.79688614 292.99285889 30.80072784 C295.58113482 31.27776001 296.45523642 32.14882126 298.0715332 34.18383789 C300.00679446 39.26520724 299.25748827 45.25391751 299.25683594 50.60107422 C299.25902229 52.61129944 299.27719999 54.62097525 299.29614258 56.63110352 C299.29904297 58.54246094 299.29904297 58.54246094 299.30200195 60.49243164 C299.30611084 61.65572998 299.31021973 62.81902832 299.31445312 64.01757812 C298.98459378 68.31702117 298.13476659 71.12060451 295.0715332 74.18383789 C292.54956055 74.41088867 292.54956055 74.41088867 289.4074707 74.37915039 C288.3973291 74.37415527 287.3871875 74.36916016 286.34643555 74.36401367 C285.05946777 74.34580566 283.7725 74.32759766 282.4465332 74.30883789 C278.3627832 74.26758789 274.2790332 74.22633789 270.0715332 74.18383789 C270.0715332 83.42383789 270.0715332 92.66383789 270.0715332 102.18383789 C273.99092773 102.13163086 273.99092773 102.13163086 277.98950195 102.07836914 C280.52798368 102.05495421 283.06645325 102.03674868 285.60498047 102.01904297 C287.36545216 102.00398236 289.1258865 101.98352963 290.88623047 101.95751953 C293.42074823 101.9210156 295.95476872 101.90408435 298.48950195 101.89086914 C299.27302536 101.87538528 300.05654877 101.85990143 300.86381531 101.84394836 C305.45105707 101.84254446 308.43953927 102.30371353 312.0715332 105.18383789 C313.73730946 108.5153904 313.19161176 112.24919848 313.16918945 115.91040039 C313.16777451 116.77321625 313.16635956 117.6360321 313.16490173 118.5249939 C313.15929508 121.2863102 313.14674148 124.04754601 313.1340332 126.80883789 C313.12901906 128.67862839 313.124456 130.54842015 313.12036133 132.41821289 C313.10932349 137.00678566 313.0920544 141.59529812 313.0715332 146.18383789 C313.71813809 146.18107251 314.36474298 146.17830713 315.03094196 146.17545795 C330.75433473 146.10924437 346.4776791 146.05957992 362.20117664 146.02840137 C369.80490433 146.01292343 377.40853903 145.99181631 385.01220703 145.95751953 C391.63851043 145.92764542 398.2647465 145.90826963 404.89111537 145.90157241 C408.40071393 145.89765673 411.91011985 145.88843542 415.41965675 145.86664772 C419.33465854 145.84253933 423.24947076 145.84186662 427.16455078 145.84326172 C428.33195801 145.83247589 429.49936523 145.82169006 430.70214844 145.81057739 C431.76645584 145.81470139 432.83076324 145.81882538 433.92732239 145.82307434 C434.85372434 145.82030896 435.78012629 145.81754358 436.73460102 145.8146944 C439.54310656 146.25832796 440.39030043 146.92823591 442.0715332 149.18383789 C443.04120325 152.09284802 443.19505766 153.9237128 443.19178772 156.94841003 C443.19316238 157.9285759 443.19453705 158.90874176 443.19595337 159.91860962 C443.19235809 160.99250946 443.18876282 162.0664093 443.18505859 163.17285156 C443.18520462 164.30470383 443.18535065 165.43655609 443.1855011 166.60270691 C443.18480316 170.35242616 443.17701625 174.10209604 443.16918945 177.85180664 C443.16732485 180.44826734 443.16590115 183.0447284 443.16490173 185.64118958 C443.16147072 191.78222778 443.15358526 197.92324554 443.14355224 204.06427604 C443.13237758 211.05574579 443.12687724 218.04721638 443.12185681 225.03869283 C443.1114023 239.42041741 443.09381128 253.80212702 443.0715332 268.18383789 C443.77761719 268.16289063 444.48370117 268.14194336 445.21118164 268.12036133 C448.41448696 268.03714491 451.61756484 267.98516004 454.8215332 267.93383789 C455.93270508 267.90032227 457.04387695 267.86680664 458.1887207 267.83227539 C459.25864258 267.81938477 460.32856445 267.80649414 461.4309082 267.79321289 C462.41542969 267.77226563 463.39995117 267.75131836 464.41430664 267.72973633 C467.84210293 268.31552291 468.99090463 269.44245742 471.0715332 272.18383789 C471.46921266 275.10584396 471.63311755 277.6432712 471.6027832 280.56274414 C471.60661011 281.37122299 471.61043701 282.17970184 471.61437988 283.01268005 C471.61709682 284.71810149 471.60975081 286.42356475 471.59301758 288.12890625 C471.5715749 290.74125769 471.59283872 293.35086791 471.6184082 295.96313477 C471.61576543 297.62134396 471.6106415 299.27955146 471.6027832 300.93774414 C471.61088013 301.7190419 471.61897705 302.50033966 471.62731934 303.30531311 C471.53357735 308.71505654 471.53357735 308.71505654 469.39025879 310.88962746 C466.54064553 312.48015599 464.7105973 312.56108362 461.4543457 312.56478882 C460.31030273 312.57324829 459.16625977 312.58170776 457.98754883 312.59042358 C456.73651367 312.58435089 455.48547852 312.5782782 454.1965332 312.57202148 C452.86254446 312.57608764 451.52855908 312.58142978 450.19458008 312.58795166 C446.57474507 312.60162599 442.95516663 312.59632626 439.33532715 312.5868144 C435.54686797 312.57921837 431.75843074 312.58626326 427.9699707 312.5909729 C421.60795142 312.59643062 415.24603662 312.58923844 408.8840332 312.57495117 C401.52899808 312.55862456 394.17421243 312.56391306 386.81918335 312.58043039 C380.50399643 312.59404482 374.1888846 312.59596515 367.87368774 312.58811438 C364.10202953 312.5834376 360.33048857 312.58281307 356.55883789 312.59272385 C353.01290205 312.60139068 349.46728782 312.59537715 345.92138672 312.57804108 C343.99943483 312.57218273 342.07745575 312.58109424 340.15551758 312.59042358 C339.01147461 312.58196411 337.86743164 312.57350464 336.6887207 312.56478882 C335.69469238 312.56365774 334.70066406 312.56252666 333.67651367 312.56136131 C330.65107519 312.12290356 329.28484081 311.25520646 327.0715332 309.18383789 C324.95363698 304.13207157 325.88559776 297.71168513 325.88623047 292.33935547 C325.88404409 290.25670937 325.86586731 288.17459352 325.84692383 286.09204102 C325.84402344 284.11300781 325.84402344 284.11300781 325.84106445 282.09399414 C325.83695557 280.88880127 325.83284668 279.6836084 325.82861328 278.44189453 C326.07017602 275.20204047 326.54456691 273.03851805 328.0715332 270.18383789 C331.47050993 267.91785341 332.63472494 267.94641135 336.61450195 267.98852539 C337.58154053 267.99352051 338.5485791 267.99851562 339.54492188 268.00366211 C340.77057861 268.02187012 341.99623535 268.04007813 343.2590332 268.05883789 C349.1062207 268.12071289 349.1062207 268.12071289 355.0715332 268.18383789 C355.0715332 254.32383789 355.0715332 240.46383789 355.0715332 226.18383789 C341.2115332 226.18383789 327.3515332 226.18383789 313.0715332 226.18383789 C313.19006887 236.20605583 313.19006887 236.20605583 313.34179688 246.2277832 C313.35303589 248.10095215 313.35303589 248.10095215 313.36450195 250.01196289 C313.3802124 251.28974609 313.39592285 252.5675293 313.41210938 253.8840332 C313.05018609 257.39066773 312.57912551 258.75876837 310.0715332 261.18383789 C307.00359506 262.20648394 304.90858252 262.31444099 301.69522095 262.32427979 C300.02124992 262.332845 300.02124992 262.332845 298.3134613 262.34158325 C297.08845413 262.34270111 295.86344696 262.34381897 294.60131836 262.3449707 C293.31168686 262.34993561 292.02205536 262.35490051 290.69334412 262.36001587 C287.15404323 262.37313189 283.61476132 262.37958315 280.07543993 262.38402653 C277.86408642 262.38695826 275.65273808 262.39106324 273.44138718 262.3955307 C266.52211107 262.40920292 259.60284679 262.41887118 252.68355811 262.42273259 C244.69693214 262.42721421 236.71047724 262.44476793 228.7239033 262.47373319 C222.54971453 262.49534805 216.37557391 262.50543675 210.20134771 262.50677371 C206.51401338 262.50782179 202.82683993 262.51373025 199.13954544 262.53159332 C195.02643698 262.55113194 190.91368682 262.54678585 186.80053711 262.5402832 C185.5795784 262.54949799 184.35861969 262.55871277 183.10066223 262.56820679 C181.9790419 262.56263763 180.85742157 262.55706848 179.70181274 262.55133057 C178.72953043 262.55279713 177.75724812 262.55426369 176.7555027 262.55577469 C173.55893011 262.11280282 171.67046678 261.06729027 169.0715332 259.18383789 C167.58473596 256.2102434 167.96040715 253.5208461 167.97387695 250.20727539 C167.9752919 249.52202789 167.97670685 248.8367804 167.97816467 248.13076782 C167.98376646 245.94008028 167.99631914 243.74949459 168.0090332 241.55883789 C168.01404798 240.07446437 168.01861092 238.59008924 168.02270508 237.10571289 C168.03373643 233.46505474 168.05100221 229.82445625 168.0715332 226.18383789 C167.43356308 226.19636597 166.79559296 226.20889404 166.13829041 226.22180176 C159.37105201 226.35424611 152.60375761 226.48350492 145.83642578 226.61108398 C143.32599412 226.65880412 140.8155767 226.70728065 138.30517578 226.7565918 C122.22519255 227.07182251 106.15471213 227.26108017 90.0715332 227.18383789 C89.98609253 228.06455963 89.98609253 228.06455963 89.89892578 228.96307373 C85.95371716 267.29342528 63.12977821 305.02619842 39.0715332 334.18383789 C38.61875 334.73958496 38.1659668 335.29533203 37.69946289 335.86791992 C26.20000454 349.93226803 13.46672411 363.07541023 -0.9284668 374.18383789 C-1.94424805 375.01657227 -2.9600293 375.84930664 -4.0065918 376.70727539 C-23.71799838 392.80507004 -46.05792287 405.19190872 -68.9284668 416.18383789 C-69.73300293 416.57619629 -70.53753906 416.96855469 -71.36645508 417.37280273 C-200.51893645 480.04295773 -200.51893645 480.04295773 -255.82299805 462.92016602 C-276.53627213 455.67628445 -292.39898562 441.95926208 -301.9284668 422.18383789 C-309.41997084 405.54686137 -310.43075418 387.68485506 -310.22143555 369.69165039 C-310.21005913 367.8281376 -310.19910071 365.96462223 -310.18852234 364.10110474 C-310.02108061 342.23254567 -309.21668728 320.37837458 -308.37415314 298.52734756 C-308.23819598 294.98667888 -308.10492908 291.44591758 -307.97235107 287.90512085 C-305.3758105 218.69516244 -302.14874856 149.51931314 -297.99559784 80.38476181 C-297.80721461 77.2462769 -297.62014204 74.10771578 -297.4331665 70.96914673 C-296.28646853 51.79681746 -295.07774293 32.63514362 -293.36206055 13.50415039 C-293.30285809 12.83295166 -293.24365562 12.16175293 -293.18265915 11.47021484 C-291.40563484 -8.45054352 -287.68458461 -27.7975349 -274.9284668 -43.81616211 C-274.49276367 -44.42588867 -274.05706055 -45.03561523 -273.6081543 -45.66381836 C-262.05731022 -60.84591582 -241.68967136 -67.04039388 -223.79174805 -70.40600586 C-148.39949838 -78.41023863 -58.62768932 -46.42694736 0 0 Z M198.0715332 46.18383789 C198.0715332 50.47383789 198.0715332 54.76383789 198.0715332 59.18383789 C226.1215332 59.18383789 254.1715332 59.18383789 283.0715332 59.18383789 C283.0715332 54.89383789 283.0715332 50.60383789 283.0715332 46.18383789 C255.0215332 46.18383789 226.9715332 46.18383789 198.0715332 46.18383789 Z M226.0715332 74.18383789 C226.0715332 83.42383789 226.0715332 92.66383789 226.0715332 102.18383789 C235.3115332 102.18383789 244.5515332 102.18383789 254.0715332 102.18383789 C254.0715332 92.94383789 254.0715332 83.70383789 254.0715332 74.18383789 C244.8315332 74.18383789 235.5915332 74.18383789 226.0715332 74.18383789 Z M183.0715332 118.18383789 C183.0715332 160.42383789 183.0715332 202.66383789 183.0715332 246.18383789 C221.0215332 246.18383789 258.9715332 246.18383789 298.0715332 246.18383789 C298.0715332 203.94383789 298.0715332 161.70383789 298.0715332 118.18383789 C260.1215332 118.18383789 222.1715332 118.18383789 183.0715332 118.18383789 Z M-132.9284668 124.18383789 C-134.72425087 130.25396219 -134.9284668 135.841398 -134.9284668 142.18383789 C-119.7484668 142.18383789 -104.5684668 142.18383789 -88.9284668 142.18383789 C-93.12762811 137.28481636 -96.42637386 133.66490417 -101.5534668 130.12133789 C-102.46044312 129.48736084 -102.46044312 129.48736084 -103.38574219 128.84057617 C-110.0483698 124.28033125 -116.81737538 119.9016475 -124.8659668 118.49633789 C-129.13068413 119.45372341 -130.44294429 120.56207652 -132.9284668 124.18383789 Z M113.0715332 161.18383789 C113.0715332 177.35383789 113.0715332 193.52383789 113.0715332 210.18383789 C131.2215332 210.18383789 149.3715332 210.18383789 168.0715332 210.18383789 C168.0715332 194.01383789 168.0715332 177.84383789 168.0715332 161.18383789 C149.9215332 161.18383789 131.7715332 161.18383789 113.0715332 161.18383789 Z M313.0715332 161.18383789 C313.0715332 177.35383789 313.0715332 193.52383789 313.0715332 210.18383789 C344.0915332 210.18383789 375.1115332 210.18383789 407.0715332 210.18383789 C407.0715332 215.46383789 407.0715332 220.74383789 407.0715332 226.18383789 C395.1915332 226.18383789 383.3115332 226.18383789 371.0715332 226.18383789 C371.0715332 240.04383789 371.0715332 253.90383789 371.0715332 268.18383789 C389.5515332 268.18383789 408.0315332 268.18383789 427.0715332 268.18383789 C427.0715332 232.87383789 427.0715332 197.56383789 427.0715332 161.18383789 C389.4515332 161.18383789 351.8315332 161.18383789 313.0715332 161.18383789 Z M-138.9284668 227.18383789 C-140.10571026 231.89281173 -140.15045225 236.16733004 -140.1784668 240.99633789 C-140.1990918 241.87354492 -140.2197168 242.75075195 -140.2409668 243.65454102 C-140.27457898 249.27197733 -139.65123336 253.23395401 -136.9284668 258.18383789 C-133.8424558 259.72684339 -131.25566666 259.77611431 -127.9284668 259.18383789 C-111.86032411 253.10901338 -98.07132029 240.70764255 -87.9284668 227.18383789 C-104.7584668 227.18383789 -121.5884668 227.18383789 -138.9284668 227.18383789 Z M342.0715332 283.18383789 C342.0715332 287.80383789 342.0715332 292.42383789 342.0715332 297.18383789 C379.6915332 297.18383789 417.3115332 297.18383789 456.0715332 297.18383789 C456.0715332 292.56383789 456.0715332 287.94383789 456.0715332 283.18383789 C418.4515332 283.18383789 380.8315332 283.18383789 342.0715332 283.18383789 Z " fill="#084093" transform="translate(1287.928466796875,320.816162109375)"/>
<path d="M0 0 C0.76773743 0.00087616 1.53547485 0.00175232 2.32647705 0.00265503 C29.03724518 0.10282648 53.63501049 6.44700565 77.0625 19.375 C78.12855469 19.95121094 79.19460938 20.52742188 80.29296875 21.12109375 C116.43827113 41.36807426 142.9988262 75.24930694 154.41503906 114.98144531 C165.36240904 155.45203929 156.83579008 196.80486021 136.45288086 232.81518555 C127.90531868 247.45633648 117.66861805 260.52494621 106.6484375 273.359375 C104.0524812 276.38668355 101.48417312 279.43113839 98.9375 282.5 C98.21304687 283.36882812 97.48859375 284.23765625 96.7421875 285.1328125 C94.16243485 288.57648231 93.58581561 291.85661372 93.6640625 296.13671875 C95.3831844 305.79413883 105.84311693 313.6497293 112.875 319.6875 C120.60095326 326.33181981 127.75544541 333.69298694 134.35546875 341.44921875 C136.33849795 343.68636611 138.43443386 345.77554652 140.5625 347.875 C143.95518399 351.22756779 147.15350684 354.66975682 150.2578125 358.2890625 C152.27901276 360.62525501 154.35628839 362.90464851 156.4375 365.1875 C160.26042623 369.42805683 163.9093501 373.77742569 167.49609375 378.21875 C169.40029526 380.57408675 171.33622361 382.90030018 173.28515625 385.21875 C193.43328234 409.25674879 215.38369538 436.0967478 214.34765625 469.25 C212.37598575 490.85734799 203.82487968 509.18791047 187.0625 523.375 C174.14426573 533.47388364 160.23302415 539.40671201 144.0625 542.375 C142.99128906 542.57222656 142.99128906 542.57222656 141.8984375 542.7734375 C119.61930789 546.16573295 96.12678085 539.51574565 78.0625 526.375 C66.69785778 517.32293032 57.17323462 506.23068779 48.3125 494.78662109 C41.07075243 485.46236255 33.26271237 476.59156834 25.31640625 467.86401367 C23.93833938 466.34219914 22.56845222 464.81286167 21.21313477 463.27075195 C14.67086166 455.85780624 7.7327201 448.85908329 0.74316406 441.87036133 C-1.30694018 439.81806576 -3.34888751 437.75788085 -5.390625 435.69726562 C-11.91156423 429.14903222 -18.43495323 422.84730322 -25.70825195 417.13061523 C-27.79378943 415.48817738 -29.7779578 413.77593528 -31.75 412 C-35.60885928 408.70159409 -38.93194038 406.4929741 -44.125 406.1875 C-47.28674506 407.15537431 -47.28674506 407.15537431 -48.52734375 410.71484375 C-50.36392588 416.08700957 -50.8215271 421.49485646 -51.3125 427.125 C-51.42916016 428.35637695 -51.54582031 429.58775391 -51.66601562 430.85644531 C-52.57481035 440.58430278 -53.34416612 450.32434582 -54.1328125 460.0625 C-54.2395932 461.37236877 -54.3463739 462.68223755 -54.45639038 464.03179932 C-54.56551161 465.3704817 -54.67461185 466.70916579 -54.78369141 468.04785156 C-54.83810331 468.71531528 -54.89251522 469.38277901 -54.94857597 470.0704689 C-55.32520583 474.70474918 -55.68813941 479.33999451 -56.04833984 483.97558594 C-58.55406455 515.57058589 -62.00877678 546.38670695 -85.9375 569.375 C-87.06478516 570.49648437 -87.06478516 570.49648437 -88.21484375 571.640625 C-104.60377801 587.17010339 -126.5363164 592.94921116 -148.59790039 592.79223633 C-167.65943747 592.27200325 -185.63424984 586.32562892 -199.9375 573.375 C-200.60910156 572.79492188 -201.28070312 572.21484375 -201.97265625 571.6171875 C-216.45206561 558.28162358 -222.79979692 538.65525511 -224.22787476 519.47503662 C-224.34981479 515.34037029 -224.36610949 511.22152469 -224.32421875 507.0859375 C-224.32059515 506.30105328 -224.31697155 505.51616905 -224.31323814 504.70750046 C-224.17777494 479.78781741 -222.48907729 454.89722516 -220.99189377 430.03101349 C-220.7465766 425.9524134 -220.50598359 421.87354205 -220.2661438 417.7946167 C-208.49983313 217.89897363 -208.49983313 217.89897363 -166.9375 109.375 C-166.4852002 108.5200293 -166.03290039 107.66505859 -165.56689453 106.78417969 C-151.55824327 80.75795451 -131.30206469 56.45874324 -107.9375 38.375 C-107.41269043 37.95782715 -106.88788086 37.5406543 -106.34716797 37.11083984 C-76.11538773 13.16144893 -38.5197113 -0.10785311 0 0 Z " fill="#084093" transform="translate(760.9375,293.625)"/>
<path d="M0 0 C0 0.33 0 0.66 0 1 C-0.56170898 1.05945801 -1.12341797 1.11891602 -1.70214844 1.18017578 C-33.03841516 4.63161449 -61.95963666 15.1293421 -86 36 C-86.7940625 36.68449219 -87.588125 37.36898437 -88.40625 38.07421875 C-90.97890205 40.3415719 -93.49630101 42.6567467 -96 45 C-96.93714844 45.87140625 -97.87429688 46.7428125 -98.83984375 47.640625 C-111.21470431 59.41898326 -121.25840888 73.36750478 -130 88 C-130.39251953 88.64952637 -130.78503906 89.29905273 -131.18945312 89.96826172 C-171.09151982 156.6350665 -173.56929545 244.12779204 -178.91796875 319.6640625 C-179.00190195 320.84126232 -179.08583515 322.01846214 -179.17231178 323.23133469 C-181.16751836 351.33126795 -182.77767008 379.45226206 -184.34924173 407.57854843 C-184.99208857 419.08139032 -185.64437313 430.58370132 -186.2956028 442.08607101 C-186.50568099 445.80711763 -186.71405171 449.52825638 -186.92204285 453.24942017 C-188.05955374 473.51673135 -188.05955374 473.51673135 -188.80915833 483.30526733 C-189.82940388 497.71139239 -187.34894393 511.08430826 -178.3125 522.75 C-170.89551858 530.81193632 -158.50447463 536.36774568 -147.61914062 537.17700195 C-130.91660473 537.6073766 -130.91660473 537.6073766 -115 533 C-113.90429688 532.51402344 -112.80859375 532.02804687 -111.6796875 531.52734375 C-98.22955718 524.92710578 -89.36966836 515.14239792 -84.45874023 501.12841797 C-81.95782916 493.67121602 -80.98734902 486.48767779 -80.47265625 478.6328125 C-80.36361293 477.195749 -80.25260774 475.75883336 -80.13990784 474.322052 C-79.88730818 471.06709975 -79.64568627 467.81155056 -79.41046143 464.55529785 C-78.96028601 458.38279242 -78.46138558 452.21446169 -77.96044922 446.04589844 C-77.17627775 436.36983516 -76.40018223 426.69319094 -75.63476562 417.015625 C-75.53658224 415.77442776 -75.43839886 414.53323051 -75.33724022 413.25442123 C-75.13762507 410.73022551 -74.93805361 408.20602633 -74.73852539 405.68182373 C-73.94164408 395.60431269 -73.14209779 385.52701275 -72.34257698 375.44971085 C-72.06846638 371.99173329 -71.79508186 368.533699 -71.52183533 365.07565308 C-71.10246257 359.77348958 -70.67968653 354.47160822 -70.25403976 349.16994476 C-70.07938994 346.9906391 -69.90568819 344.81125732 -69.73277664 342.63181305 C-69.46943384 339.31956264 -69.20210698 336.00765541 -68.93383789 332.69580078 C-68.85475661 331.69255705 -68.77567533 330.68931332 -68.69419765 329.65566826 C-68.61783109 328.72283075 -68.54146452 327.78999325 -68.46278381 326.82888794 C-68.39733399 326.01424135 -68.33188417 325.19959476 -68.26445103 324.36026192 C-67.98510173 321.86703088 -67.52549924 319.45215107 -67 317 C-62.79660676 318.45800356 -59.42979453 320.63616524 -55.875 323.25 C-55.28098389 323.68111084 -54.68696777 324.11222168 -54.07495117 324.55639648 C-52.76303413 325.51068524 -51.45315384 326.46777855 -50.14501953 327.42724609 C-47.84987351 329.11007454 -45.54804064 330.78352003 -43.24609375 332.45703125 C-34.62343886 338.74634606 -26.17569816 345.1370928 -18 352 C-16.23037027 353.43898143 -14.45949899 354.87643714 -12.6875 356.3125 C4.41245928 370.33640428 20.40822218 385.32710123 36.0625 400.9375 C36.60347321 401.47579437 37.14444641 402.01408875 37.70181274 402.56869507 C43.68871839 408.53307601 49.51073946 414.56863138 55 421 C56.4132355 422.5448126 57.82940409 424.08695325 59.25 425.625 C63.25484264 430.0627986 66.96029436 434.67533475 70.62304688 439.39379883 C74.81109446 444.78641836 79.11031664 450.08285546 83.43115234 455.36938477 C86.30504487 458.89195588 89.12722249 462.43986956 91.875 466.0625 C101.29345752 478.1752351 113.58760892 485.94242638 129 488 C147.40552997 489.32711268 164.1313328 484.82893921 178.375 472.6875 C187.94785119 463.47207669 193.97359995 452.92474738 194.4375 439.375 C193.78407473 424.3679996 186.40210049 413.01770032 177.31738281 401.66015625 C175.23328757 399.03379456 173.21598993 396.35691345 171.1875 393.6875 C159.01285138 377.81719172 146.16964553 362.46416921 132.57421875 347.79296875 C130.22447983 345.24355551 127.92129068 342.65994356 125.625 340.0625 C121.45352939 335.40247878 117.04568246 331.01144473 112.59741211 326.61889648 C109.83315133 323.87751122 107.16328125 321.13517119 104.6875 318.125 C102.1586594 315.05747146 99.29537165 312.58440729 96.26953125 310.015625 C93.56864895 307.61690682 91.03388599 305.0716987 88.5 302.5 C84.16283641 298.11647718 79.70308652 293.98634902 75 290 C73.92639799 289.07501361 72.85354805 288.14915396 71.78125 287.22265625 C65.31293995 281.64323732 58.79886399 276.15383131 52.109375 270.83984375 C50 269 50 269 48 266 C48.78761719 265.40574219 49.57523438 264.81148437 50.38671875 264.19921875 C69.27438801 249.87074317 87.786969 234.13073973 102 215 C102.76828125 213.99839844 103.5365625 212.99679687 104.328125 211.96484375 C127.37165571 181.32851309 141.390964 146.05288828 136.50390625 107.265625 C135.89851308 103.44853875 135.00283252 99.73299288 134 96 C133.69449219 94.824375 133.38898438 93.64875 133.07421875 92.4375 C123.58724295 60.42326895 100.76233625 33.76207494 71.625 17.91015625 C70.41871655 17.26956242 69.21036888 16.63284072 68 16 C67.40316406 15.68788574 66.80632812 15.37577148 66.19140625 15.05419922 C53.20316715 8.3820151 39.46236381 4.09282586 25 2 C25 1.67 25 1.34 25 1 C41.39813945 1.32384117 57.15077655 6.26028675 72 13 C72.64533691 13.29245605 73.29067383 13.58491211 73.95556641 13.88623047 C88.66446675 20.66474053 101.77183578 29.37792302 114 40 C115.38832031 41.18722656 115.38832031 41.18722656 116.8046875 42.3984375 C123.28634146 48.09008377 128.78519565 54.13793634 134 61 C134.79019531 62.01320313 135.58039063 63.02640625 136.39453125 64.0703125 C159.41168512 94.32077789 169.66384106 132.25507129 165.23095703 169.95214844 C159.82282637 209.61177331 139.22293319 243.12677021 113.5859375 272.984375 C110.9899812 276.01168355 108.42167312 279.05613839 105.875 282.125 C105.15054687 282.99382812 104.42609375 283.86265625 103.6796875 284.7578125 C101.09993485 288.20148231 100.52331561 291.48161372 100.6015625 295.76171875 C102.3206844 305.41913883 112.78061693 313.2747293 119.8125 319.3125 C127.53845326 325.95681981 134.69294541 333.31798694 141.29296875 341.07421875 C143.27599795 343.31136611 145.37193386 345.40054652 147.5 347.5 C150.89268399 350.85256779 154.09100684 354.29475682 157.1953125 357.9140625 C159.21651276 360.25025501 161.29378839 362.52964851 163.375 364.8125 C167.19792623 369.05305683 170.8468501 373.40242569 174.43359375 377.84375 C176.33779526 380.19908675 178.27372361 382.52530018 180.22265625 384.84375 C200.37078234 408.88174879 222.32119538 435.7217478 221.28515625 468.875 C219.31348575 490.48234799 210.76237968 508.81291047 194 523 C181.08176573 533.09888364 167.17052415 539.03171201 151 542 C149.92878906 542.19722656 149.92878906 542.19722656 148.8359375 542.3984375 C126.55680789 545.79073295 103.06428085 539.14074565 85 526 C73.63535778 516.94793032 64.11073462 505.85568779 55.25 494.41162109 C48.00825243 485.08736255 40.20021237 476.21656834 32.25390625 467.48901367 C30.87583938 465.96719914 29.50595222 464.43786167 28.15063477 462.89575195 C21.60836166 455.48280624 14.6702201 448.48408329 7.68066406 441.49536133 C5.63055982 439.44306576 3.58861249 437.38288085 1.546875 435.32226562 C-4.97406423 428.77403222 -11.49745323 422.47230322 -18.77075195 416.75561523 C-20.85628943 415.11317738 -22.8404578 413.40093528 -24.8125 411.625 C-28.67135928 408.32659409 -31.99444038 406.1179741 -37.1875 405.8125 C-40.34924506 406.78037431 -40.34924506 406.78037431 -41.58984375 410.33984375 C-43.42642588 415.71200957 -43.8840271 421.11985646 -44.375 426.75 C-44.49166016 427.98137695 -44.60832031 429.21275391 -44.72851562 430.48144531 C-45.63731035 440.20930278 -46.40666612 449.94934582 -47.1953125 459.6875 C-47.3020932 460.99736877 -47.4088739 462.30723755 -47.51889038 463.65679932 C-47.62801161 464.9954817 -47.73711185 466.33416579 -47.84619141 467.67285156 C-47.90060331 468.34031528 -47.95501522 469.00777901 -48.01107597 469.6954689 C-48.38770583 474.32974918 -48.75063941 478.96499451 -49.11083984 483.60058594 C-51.61656455 515.19558589 -55.07127678 546.01170695 -79 569 C-80.12728516 570.12148437 -80.12728516 570.12148437 -81.27734375 571.265625 C-97.66627801 586.79510339 -119.5988164 592.57421116 -141.66040039 592.41723633 C-160.72193747 591.89700325 -178.69674984 585.95062892 -193 573 C-193.67160156 572.41992188 -194.34320312 571.83984375 -195.03515625 571.2421875 C-209.51456561 557.90662358 -215.86229692 538.28025511 -217.29037476 519.10003662 C-217.41231479 514.96537029 -217.42860949 510.84652469 -217.38671875 506.7109375 C-217.38309515 505.92605328 -217.37947155 505.14116905 -217.37573814 504.33250046 C-217.24027494 479.41281741 -215.55157729 454.52222516 -214.05439377 429.65601349 C-213.8090766 425.5774134 -213.56848359 421.49854205 -213.3286438 417.4196167 C-201.56233313 217.52397363 -201.56233313 217.52397363 -160 109 C-159.5477002 108.1450293 -159.09540039 107.29005859 -158.62939453 106.40917969 C-144.62074327 80.38295451 -124.36456469 56.08374324 -101 38 C-100.47519043 37.58282715 -99.95038086 37.1656543 -99.40966797 36.73583984 C-72.47697985 15.3999651 -35.00582084 -1.42235841 0 0 Z " fill="#000000" transform="translate(754,294)"/>
<path d="M0 0 C-0.99580078 0.47179687 -0.99580078 0.47179687 -2.01171875 0.953125 C-12.26047932 5.92040749 -19.17592063 12.01576311 -23.42219543 22.91247559 C-26.47976046 33.95901628 -26.61422819 46.01956947 -27.33203125 57.40625 C-27.4496241 59.21168783 -27.56757992 61.01710205 -27.68586731 62.82249451 C-28.00319141 67.69502026 -28.31263363 72.56801432 -28.6195755 77.44120407 C-28.81428346 80.52827657 -29.01068176 83.61523769 -29.2074585 86.70217896 C-35.14459096 179.99317336 -39.51169433 273.36020998 -42.65016937 366.78613663 C-42.74834378 369.70082858 -42.84774082 372.61547682 -42.94732666 375.53012085 C-43.80952152 400.81622689 -43.80952152 400.81622689 -44.17578125 426.11328125 C-44.1841803 427.13343323 -44.19257935 428.15358521 -44.20123291 429.20465088 C-44.17927913 442.43251708 -39.91574528 453.33948215 -30.96875 463.25 C-19.75549023 473.97572674 -7.00606278 477.39747963 8.02001953 477.29638672 C83.78026811 475.45762074 183.700889 424.54344443 237 373 C237.75869385 372.27417725 237.75869385 372.27417725 238.53271484 371.53369141 C244.90373608 365.43215291 250.60226476 358.97470297 256 352 C256.42394043 351.4524707 256.84788086 350.90494141 257.28466797 350.34082031 C270.88431152 332.64190532 281.71278748 313.7180313 290 293 C302.21 293 314.42 293 327 293 C322.63386311 332.29523203 300.7902451 369.95520543 276 400 C275.5472168 400.55574707 275.09443359 401.11149414 274.62792969 401.68408203 C263.12847133 415.74843014 250.3951909 428.89157234 236 440 C234.98421875 440.83273437 233.9684375 441.66546875 232.921875 442.5234375 C213.21046842 458.62123215 190.87054392 471.00807083 168 482 C167.19546387 482.3923584 166.39092773 482.7847168 165.56201172 483.18896484 C36.40953035 545.85911984 36.40953035 545.85911984 -18.89453125 528.73632812 C-39.60780534 521.49244656 -55.47051883 507.77542419 -65 488 C-72.49150405 471.36302348 -73.50228738 453.50101717 -73.29296875 435.5078125 C-73.28159233 433.64429971 -73.27063391 431.78078433 -73.26005554 429.91726685 C-73.09261381 408.04870778 -72.28822049 386.19453669 -71.44568634 364.34350967 C-71.30972919 360.80284099 -71.17646228 357.26207969 -71.04388428 353.72128296 C-68.4473437 284.51132455 -65.22028176 215.33547525 -61.06713104 146.20092392 C-60.87874782 143.06243901 -60.69167525 139.92387789 -60.50469971 136.78530884 C-59.35800173 117.61297957 -58.14927613 98.45130573 -56.43359375 79.3203125 C-56.37439129 78.64911377 -56.31518883 77.97791504 -56.25419235 77.28637695 C-54.47716804 57.36561859 -50.75611781 38.01862721 -38 22 C-37.56429687 21.39027344 -37.12859375 20.78054688 -36.6796875 20.15234375 C-30.54177723 12.08485091 -10.34419637 -3.44806546 0 0 Z " fill="#000000" transform="translate(1051,255)"/>
<path d="M0 0 C1.95786528 -0.02371582 3.9161823 -0.01940642 5.87402344 0.00622559 C6.9425354 0.00067657 8.01104736 -0.00487244 9.11193848 -0.0105896 C12.65287767 -0.02242488 16.19254826 0.00193009 19.73339844 0.02770996 C22.18815045 0.02942005 24.64290428 0.02935641 27.09765625 0.02758789 C32.24594558 0.02924335 37.39380064 0.04798375 42.54199219 0.07946777 C49.1500803 0.1191456 55.75759908 0.12351436 62.36578369 0.11600494 C67.43576295 0.11293934 72.50561355 0.12504126 77.57556152 0.14213562 C80.01248365 0.14918045 82.44942037 0.15228837 84.88635254 0.15144348 C88.28876228 0.15323579 91.69048249 0.17456988 95.09277344 0.20153809 C96.10585571 0.19860748 97.11893799 0.19567688 98.16271973 0.19265747 C99.55073792 0.20968216 99.55073792 0.20968216 100.96679688 0.22705078 C101.77131287 0.2307795 102.57582886 0.23450821 103.40472412 0.23834991 C105.99300005 0.71538208 106.86710165 1.58644333 108.48339844 3.62145996 C110.41865969 8.70282931 109.6693535 14.69153958 109.66870117 20.03869629 C109.67088752 22.04892151 109.68906523 24.05859732 109.70800781 26.06872559 C109.70994141 27.34296387 109.711875 28.61720215 109.71386719 29.93005371 C109.71797607 31.09335205 109.72208496 32.25665039 109.72631836 33.4552002 C109.39645902 37.75464324 108.54663182 40.55822658 105.48339844 43.62145996 C102.96142578 43.84851074 102.96142578 43.84851074 99.81933594 43.81677246 C98.80919434 43.81177734 97.79905273 43.80678223 96.75830078 43.80163574 C95.47133301 43.78342773 94.18436523 43.76521973 92.85839844 43.74645996 C88.77464844 43.70520996 84.69089844 43.66395996 80.48339844 43.62145996 C80.48339844 52.86145996 80.48339844 62.10145996 80.48339844 71.62145996 C84.40279297 71.56925293 84.40279297 71.56925293 88.40136719 71.51599121 C90.93984892 71.49257628 93.47831849 71.47437075 96.0168457 71.45666504 C97.7773174 71.44160443 99.53775174 71.4211517 101.2980957 71.3951416 C103.83261346 71.35863767 106.36663396 71.34170642 108.90136719 71.32849121 C109.68489059 71.31300735 110.468414 71.2975235 111.27568054 71.28157043 C115.8629223 71.28016653 118.85140451 71.7413356 122.48339844 74.62145996 C124.14917469 77.95301247 123.603477 81.68682055 123.58105469 85.34802246 C123.57893227 86.64224625 123.57893227 86.64224625 123.57676697 87.96261597 C123.57116031 90.72393227 123.55860671 93.48516808 123.54589844 96.24645996 C123.54088429 98.11625046 123.53632124 99.98604222 123.53222656 101.85583496 C123.52118872 106.44440773 123.50391964 111.03292019 123.48339844 115.62145996 C124.13000333 115.61869458 124.77660822 115.6159292 125.4428072 115.61308002 C141.16619996 115.54686644 156.88954433 115.49720199 172.61304188 115.46602345 C180.21676956 115.4505455 187.82040426 115.42943838 195.42407227 115.3951416 C202.05037566 115.36526749 208.67661173 115.3458917 215.3029806 115.33919448 C218.81257916 115.3352788 222.32198509 115.32605749 225.83152199 115.30426979 C229.74652377 115.2801614 233.661336 115.27948869 237.57641602 115.28088379 C238.74382324 115.27009796 239.91123047 115.25931213 241.11401367 115.24819946 C242.17832108 115.25232346 243.24262848 115.25644745 244.33918762 115.26069641 C245.26558957 115.25793103 246.19199152 115.25516565 247.14646626 115.25231647 C249.95497179 115.69595003 250.80216567 116.36585798 252.48339844 118.62145996 C253.45306848 121.53047009 253.6069229 123.36133487 253.60365295 126.3860321 C253.60571495 127.8562809 253.60571495 127.8562809 253.6078186 129.35623169 C253.60422333 130.43013153 253.60062805 131.50403137 253.59692383 132.61047363 C253.59706985 133.7423259 253.59721588 134.87417816 253.59736633 136.04032898 C253.59666839 139.79004823 253.58888148 143.53971811 253.58105469 147.28942871 C253.57919009 149.88588941 253.57776638 152.48235047 253.57676697 155.07881165 C253.57333596 161.21984985 253.5654505 167.36086761 253.55541748 173.50189811 C253.54424281 180.49336786 253.53874248 187.48483845 253.53372204 194.4763149 C253.52326753 208.85803948 253.50567651 223.23974909 253.48339844 237.62145996 C254.18948242 237.6005127 254.89556641 237.57956543 255.62304688 237.5579834 C258.8263522 237.47476698 262.02943007 237.42278211 265.23339844 237.37145996 C266.34457031 237.33794434 267.45574219 237.30442871 268.60058594 237.26989746 C269.67050781 237.25700684 270.74042969 237.24411621 271.84277344 237.23083496 C272.82729492 237.2098877 273.81181641 237.18894043 274.82617188 237.1673584 C278.25396817 237.75314498 279.40276987 238.88007949 281.48339844 241.62145996 C281.88107789 244.54346603 282.04498278 247.08089327 282.01464844 250.00036621 C282.01847534 250.80884506 282.02230225 251.61732391 282.02624512 252.45030212 C282.02896205 254.15572356 282.02161604 255.86118682 282.00488281 257.56652832 C281.98344014 260.17887976 282.00470395 262.78848998 282.03027344 265.40075684 C282.02763067 267.05896603 282.02250673 268.71717353 282.01464844 270.37536621 C282.02274536 271.15666397 282.03084229 271.93796173 282.03918457 272.74293518 C281.94544259 278.15267861 281.94544259 278.15267861 279.80212402 280.32724953 C276.95251077 281.91777806 275.12246254 281.99870569 271.86621094 282.00241089 C270.72216797 282.01087036 269.578125 282.01932983 268.39941406 282.02804565 C267.14837891 282.02197296 265.89734375 282.01590027 264.60839844 282.00964355 C263.27440969 282.01370971 261.94042431 282.01905185 260.60644531 282.02557373 C256.98661031 282.03924806 253.36703186 282.03394833 249.74719238 282.02443647 C245.95873321 282.01684044 242.17029598 282.02388533 238.38183594 282.02859497 C232.01981666 282.03405269 225.65790186 282.02686051 219.29589844 282.01257324 C211.94086331 281.99624663 204.58607767 282.00153513 197.23104858 282.01805246 C190.91586166 282.03166689 184.60074984 282.03358722 178.28555298 282.02573645 C174.51389476 282.02105967 170.74235381 282.02043514 166.97070312 282.03034592 C163.42476728 282.03901275 159.87915306 282.03299922 156.33325195 282.01566315 C154.41130007 282.00980481 152.48932098 282.01871631 150.56738281 282.02804565 C149.42333984 282.01958618 148.27929688 282.01112671 147.10058594 282.00241089 C146.10655762 282.00127981 145.1125293 282.00014874 144.08837891 281.99898338 C141.06294042 281.56052563 139.69670604 280.69282853 137.48339844 278.62145996 C135.36550222 273.56969364 136.29746299 267.1493072 136.2980957 261.77697754 C136.29590933 259.69433144 136.27773254 257.61221559 136.25878906 255.52966309 C136.25685547 254.21030762 136.25492188 252.89095215 136.25292969 251.53161621 C136.2488208 250.32642334 136.24471191 249.12123047 136.24047852 247.8795166 C136.48204126 244.63966254 136.95643215 242.47614013 138.48339844 239.62145996 C141.88237516 237.35547548 143.04659017 237.38403342 147.02636719 237.42614746 C147.99340576 237.43114258 148.96044434 237.4361377 149.95678711 237.44128418 C151.18244385 237.45949219 152.40810059 237.4777002 153.67089844 237.49645996 C159.51808594 237.55833496 159.51808594 237.55833496 165.48339844 237.62145996 C165.48339844 223.76145996 165.48339844 209.90145996 165.48339844 195.62145996 C151.62339844 195.62145996 137.76339844 195.62145996 123.48339844 195.62145996 C123.6019341 205.6436779 123.6019341 205.6436779 123.75366211 215.66540527 C123.76115479 216.91418457 123.76864746 218.16296387 123.77636719 219.44958496 C123.79993286 221.36625977 123.79993286 221.36625977 123.82397461 223.32165527 C123.46205132 226.8282898 122.99099074 228.19639044 120.48339844 230.62145996 C117.4154603 231.64410601 115.32044775 231.75206306 112.10708618 231.76190186 C110.9911055 231.767612 109.87512482 231.77332214 108.72532654 231.77920532 C107.50031937 231.78032318 106.27531219 231.78144104 105.01318359 231.78259277 C103.72355209 231.78755768 102.43392059 231.79252258 101.10520935 231.79763794 C97.56590847 231.81075396 94.02662655 231.81720522 90.48730516 231.8216486 C88.27595165 231.82458033 86.06460332 231.82868531 83.85325241 231.83315277 C76.9339763 231.84682499 70.01471202 231.85649325 63.09542334 231.86035466 C55.10879737 231.86483628 47.12234248 231.88239 39.13576853 231.91135526 C32.96157977 231.93297012 26.78743914 231.94305882 20.61321294 231.94439578 C16.92587862 231.94544386 13.23870516 231.95135232 9.55141068 231.96921539 C5.43830222 231.98875401 1.32555205 231.98440792 -2.78759766 231.97790527 C-4.61903572 231.99172745 -4.61903572 231.99172745 -6.48747253 232.00582886 C-7.60909286 232.0002597 -8.7307132 231.99469055 -9.88632202 231.98895264 C-10.85860434 231.9904192 -11.83088665 231.99188576 -12.83263206 231.99339676 C-16.02920465 231.55042489 -17.91766798 230.50491234 -20.51660156 228.62145996 C-22.00339881 225.64786547 -21.62772761 222.95846817 -21.61425781 219.64489746 C-21.61176025 218.39112305 -21.6092627 217.13734863 -21.60668945 215.84558105 C-21.59758545 214.24537109 -21.58848145 212.64516113 -21.57910156 210.99645996 C-21.55847656 205.92270996 -21.53785156 200.84895996 -21.51660156 195.62145996 C-39.66660156 195.62145996 -57.81660156 195.62145996 -76.51660156 195.62145996 C-76.51660156 190.34145996 -76.51660156 185.06145996 -76.51660156 179.62145996 C-58.36660156 179.62145996 -40.21660156 179.62145996 -21.51660156 179.62145996 C-21.51660156 163.45145996 -21.51660156 147.28145996 -21.51660156 130.62145996 C-39.66660156 130.62145996 -57.81660156 130.62145996 -76.51660156 130.62145996 C-76.51660156 125.67145996 -76.51660156 120.72145996 -76.51660156 115.62145996 C-58.36660156 115.62145996 -40.21660156 115.62145996 -21.51660156 115.62145996 C-21.63520839 102.96648147 -21.63520839 102.96648147 -21.78686523 90.31188965 C-21.79562918 88.72237756 -21.80327334 87.13285874 -21.80957031 85.54333496 C-21.82491821 84.72171875 -21.84026611 83.90010254 -21.8560791 83.05358887 C-21.85768343 79.55188435 -21.85366973 77.25342413 -20.18579102 74.12634277 C-16.46285882 70.76987735 -11.83206125 71.49323193 -7.12988281 71.52380371 C-6.31287399 71.52521866 -5.49586517 71.52663361 -4.65409851 71.52809143 C-2.04572889 71.53368702 0.56255477 71.54623868 3.17089844 71.55895996 C4.93977741 71.56397553 6.70865772 71.56853834 8.47753906 71.57263184 C12.81288526 71.58280393 17.14804566 71.60238017 21.48339844 71.62145996 C21.48339844 62.38145996 21.48339844 53.14145996 21.48339844 43.62145996 C13.39068798 43.74002261 13.39068798 43.74002261 5.29858398 43.89172363 C3.78711792 43.90296265 3.78711792 43.90296265 2.24511719 43.91442871 C1.21346436 43.93013916 0.18181152 43.94584961 -0.88110352 43.96203613 C-3.51660156 43.62145996 -3.51660156 43.62145996 -5.31420898 42.22814941 C-7.91643207 38.75094533 -7.69417606 35.56652841 -7.71972656 31.38317871 C-7.72542664 30.66539749 -7.73112671 29.94761627 -7.73699951 29.20808411 C-7.74645108 27.68744379 -7.75298412 26.16678298 -7.75683594 24.64611816 C-7.76652081 22.32828607 -7.79753236 20.01134871 -7.82910156 17.69372559 C-7.83563394 16.21521522 -7.84088349 14.73669851 -7.84472656 13.25817871 C-7.85707336 12.56842453 -7.86942017 11.87867035 -7.88214111 11.16801453 C-7.85276476 4.76776372 -6.91886673 0.45972747 0 0 Z M8.48339844 15.62145996 C8.48339844 19.91145996 8.48339844 24.20145996 8.48339844 28.62145996 C36.53339844 28.62145996 64.58339844 28.62145996 93.48339844 28.62145996 C93.48339844 24.33145996 93.48339844 20.04145996 93.48339844 15.62145996 C65.43339844 15.62145996 37.38339844 15.62145996 8.48339844 15.62145996 Z M36.48339844 43.62145996 C36.48339844 52.86145996 36.48339844 62.10145996 36.48339844 71.62145996 C45.72339844 71.62145996 54.96339844 71.62145996 64.48339844 71.62145996 C64.48339844 62.38145996 64.48339844 53.14145996 64.48339844 43.62145996 C55.24339844 43.62145996 46.00339844 43.62145996 36.48339844 43.62145996 Z M-6.51660156 87.62145996 C-6.51660156 129.86145996 -6.51660156 172.10145996 -6.51660156 215.62145996 C31.43339844 215.62145996 69.38339844 215.62145996 108.48339844 215.62145996 C108.48339844 173.38145996 108.48339844 131.14145996 108.48339844 87.62145996 C70.53339844 87.62145996 32.58339844 87.62145996 -6.51660156 87.62145996 Z M123.48339844 130.62145996 C123.48339844 146.79145996 123.48339844 162.96145996 123.48339844 179.62145996 C154.50339844 179.62145996 185.52339844 179.62145996 217.48339844 179.62145996 C217.48339844 184.90145996 217.48339844 190.18145996 217.48339844 195.62145996 C205.60339844 195.62145996 193.72339844 195.62145996 181.48339844 195.62145996 C181.48339844 209.48145996 181.48339844 223.34145996 181.48339844 237.62145996 C199.96339844 237.62145996 218.44339844 237.62145996 237.48339844 237.62145996 C237.48339844 202.31145996 237.48339844 167.00145996 237.48339844 130.62145996 C199.86339844 130.62145996 162.24339844 130.62145996 123.48339844 130.62145996 Z M152.48339844 252.62145996 C152.48339844 257.24145996 152.48339844 261.86145996 152.48339844 266.62145996 C190.10339844 266.62145996 227.72339844 266.62145996 266.48339844 266.62145996 C266.48339844 262.00145996 266.48339844 257.38145996 266.48339844 252.62145996 C228.86339844 252.62145996 191.24339844 252.62145996 152.48339844 252.62145996 Z " fill="#000000" transform="translate(1477.5166015625,351.3785400390625)"/>
<path d="M0 0 C1.26617744 0.00056958 1.26617744 0.00056958 2.55793422 0.00115067 C3.52830924 -0.00084038 4.49868426 -0.00283143 5.49846458 -0.00488281 C6.57723537 -0.00196997 7.65600615 0.00094287 8.76746696 0.00394398 C9.90354894 0.00308955 11.03963092 0.00223513 12.21013963 0.00135481 C15.37753285 -0.00001331 18.5448857 0.00313393 21.71227413 0.00813287 C25.12264972 0.01243425 28.53302327 0.01099118 31.9434008 0.0102306 C37.85675645 0.00970517 43.7701011 0.01285399 49.68345398 0.01846844 C58.2332656 0.02658081 66.78307188 0.02919839 75.33288693 0.03045643 C89.2029646 0.03264737 103.0730364 0.03930857 116.94311088 0.04875904 C130.4199986 0.05793209 143.89688473 0.06501345 157.37377495 0.06926686 C158.20389699 0.06952958 159.03401904 0.0697923 159.8892963 0.07006299 C164.05359747 0.07136798 168.21789864 0.0726317 172.38219982 0.07387489 C206.95255755 0.08424879 241.52290443 0.10268779 276.09325737 0.1241985 C276.09325737 28.1741985 276.09325737 56.2241985 276.09325737 85.1241985 C183.03325737 85.1241985 89.97325737 85.1241985 -5.90674263 85.1241985 C-5.90674263 54.03076329 -5.90674263 54.03076329 -5.28564888 43.053886 C-5.18932419 41.21698704 -5.18932419 41.21698704 -5.09105355 39.34297901 C-4.9574362 36.82488129 -4.82044707 34.30696002 -4.67993599 31.78923756 C-4.46438125 27.91174999 -4.26206488 24.03371408 -4.06103951 20.1554485 C-3.9283329 17.68405357 -3.79489909 15.21269755 -3.66064888 12.741386 C-3.60018883 11.58444233 -3.53972878 10.42749867 -3.4774366 9.2354961 C-3.41744988 8.18153645 -3.35746315 7.12757679 -3.29565865 6.04167897 C-3.24458458 5.11273823 -3.19351052 4.1837975 -3.14088875 3.22670704 C-2.84076661 0.53176863 -2.71346789 0.17674574 0 0 Z " fill="#59A6E5" transform="translate(1124.906742632389,462.8758015036583)"/>
<path d="M0 0 C33.51067236 6.98862468 64.47751164 21.02278712 90 44 C90.73734375 44.65355469 91.4746875 45.30710937 92.234375 45.98046875 C104.17377205 57.17962318 112.38197151 71.55816503 116.1640625 87.4140625 C116.34300049 88.14729736 116.52193848 88.88053223 116.70629883 89.63598633 C117.14175697 91.42296675 117.57148146 93.21134277 118 95 C111.50875788 95.25539883 105.01882741 95.42941783 98.52368164 95.54931641 C96.3187622 95.59933653 94.11416994 95.66737987 91.91040039 95.75439453 C71.23124327 96.54992671 71.23124327 96.54992671 64.44140625 90.26953125 C62.93633314 88.53405682 61.45251821 86.77969306 60 85 C57.67152912 83.12818617 55.29394271 81.65098516 52.75 80.0625 C52.19054688 79.70349609 51.63109375 79.34449219 51.0546875 78.97460938 C45.03060107 75.19220488 39.29560888 72.03642902 32 73 C28.65444578 75.31136055 27.70124527 77.47104983 26.953125 81.328125 C26.69908816 82.96582073 26.46861019 84.60720007 26.25 86.25 C25.8375 89.1375 25.425 92.025 25 95 C15.1 95 5.2 95 -5 95 C-5 79.24672538 -5 79.24672538 -4.64868164 72.72875977 C-4.61127365 72.01619522 -4.57386566 71.30363068 -4.5353241 70.56947327 C-4.41396817 68.27656821 -4.2872732 65.98399851 -4.16015625 63.69140625 C-4.07263112 62.06909963 -3.98535061 60.44677979 -3.89830017 58.82444763 C-3.71659082 55.45354833 -3.53226631 52.08280577 -3.34594727 48.7121582 C-3.10811946 44.40660535 -2.87649111 40.10074534 -2.6467371 35.79475498 C-2.46801738 32.45653199 -2.2862752 29.11847885 -2.10360527 25.78046989 C-2.01702379 24.19259291 -1.9313118 22.60466825 -1.84651375 21.01669502 C-1.72761068 18.7994442 -1.60468481 16.58245097 -1.48071289 14.36547852 C-1.41187393 13.10864761 -1.34303497 11.85181671 -1.27210999 10.55690002 C-1.00036449 7.00476441 -0.5441903 3.51980636 0 0 Z " fill="#000000" transform="translate(1128,368)"/>
<path d="M0 0 C5.31593604 3.31904068 8.33914725 8.45388572 11.75 13.5625 C12.33910156 14.42552734 12.92820312 15.28855469 13.53515625 16.17773438 C17.85705428 22.57116284 17.85705428 22.57116284 19 26 C19.969375 26.226875 20.93875 26.45375 21.9375 26.6875 C27.64996204 28.10390964 31.68674538 32.18860205 36 36 C36.71671875 36.62132812 37.4334375 37.24265625 38.171875 37.8828125 C48.53325077 47.48114122 54.54510581 60.61530242 55.34375 74.69140625 C55.907003 92.78028541 51.29587406 107.3688274 39 121 C27.17436644 131.45255565 13.56643503 137.42509539 -2.25 137.3125 C-3.084104 137.30686035 -3.91820801 137.3012207 -4.77758789 137.29541016 C-20.82028336 136.98185191 -34.0294335 131.00972487 -45.37109375 119.7890625 C-56.95920717 107.49498675 -61.77637636 91.77995701 -61.3125 75.1328125 C-60.44692776 59.67513485 -52.90333496 46.57786228 -42 36 C-37.75059841 32.23498615 -33.57437329 29.22674234 -28.4375 26.8125 C-22.30405992 23.56475829 -19.54066267 17.7387951 -16 12 C-14.56323743 9.9224159 -13.10579553 7.85893274 -11.625 5.8125 C-10.97789063 4.91144531 -10.33078125 4.01039063 -9.6640625 3.08203125 C-6.82800769 -0.46636597 -4.39956281 -0.43132969 0 0 Z M-3 21 C-4.44824809 22.68164345 -5.85799278 24.39651421 -7.25 26.125 C-8.07113281 27.13046875 -8.89226562 28.1359375 -9.73828125 29.171875 C-10.97609135 30.71967209 -12.20069278 32.27992884 -13.35546875 33.890625 C-16.39686768 38.06294122 -20.06113825 39.72502089 -24.6171875 41.83984375 C-27.44530599 43.21681292 -29.73806193 44.81345987 -32 47 C-32 47.66 -32 48.32 -32 49 C-32.99 49.33 -33.98 49.66 -35 50 C-42.75896642 60.0337543 -46.80517923 70.27494455 -45.75 83.01953125 C-43.86361455 96.14001575 -39.15395008 105.43537917 -28.6953125 113.85546875 C-18.5111207 120.99145089 -8.28383829 122.88372937 4 122 C15.45777158 119.85085866 24.26379864 114.95956365 31.375 105.6875 C38.54772297 95.1675063 41.45689919 84.59331074 39.5390625 71.96484375 C37.95631699 64.74938627 35.21633376 59.03726968 31 53 C29.9171875 51.4221875 29.9171875 51.4221875 28.8125 49.8125 C24.07200734 45.07200734 18.24718963 41.30057595 12.015625 38.8046875 C7.79619139 36.27958604 5.79247157 32.90398483 3.1875 28.8125 C2.22528818 27.33812274 1.26058767 25.86536554 0.29296875 24.39453125 C-0.1244458 23.74331299 -0.54186035 23.09209473 -0.97192383 22.42114258 C-1.48082153 21.717677 -1.48082153 21.717677 -2 21 C-2.33 21 -2.66 21 -3 21 Z " fill="#000000" transform="translate(1697,647)"/>
<path d="M0 0 C4.55324592 4.14851295 6.95709129 8.90941316 8 15 C6.55589327 32.90692349 -18.32930661 52.63521599 -31.15625 63.8125 C-33.7275861 65.94050229 -36.33749466 67.98768916 -39 70 C-40.29744141 71.02287109 -40.29744141 71.02287109 -41.62109375 72.06640625 C-51.76110887 79.82226687 -64.84936273 88 -78 88 C-76.79380898 78.65652033 -74.45417224 69.82810659 -71.59521484 60.87841797 C-71.10904924 59.34414473 -70.65353889 57.8001864 -70.20703125 56.25390625 C-65.54980165 42.23493594 -53.04573701 30.41506558 -43 20 C-42.11828125 19.02353516 -42.11828125 19.02353516 -41.21875 18.02734375 C-37.39795849 13.90439781 -32.99376411 10.59863714 -28.5 7.25 C-27.87053467 6.77739746 -27.24106934 6.30479492 -26.5925293 5.81787109 C-18.64085286 0.02635692 -9.66108584 -4.31155897 0 0 Z " fill="#000000" transform="translate(776,402)"/>
<path d="M0 0 C82.44878526 -1.72062426 173.89803796 26.17186383 234.5703125 83.6953125 C235.71555972 84.79477676 236.85866332 85.8964768 238 87 C238.65323242 87.63131836 239.30646484 88.26263672 239.97949219 88.91308594 C248.17382404 96.87604842 256.09076926 104.87220893 263 114 C263.41523926 114.53882813 263.83047852 115.07765625 264.25830078 115.6328125 C285.40183365 143.13559241 305.38722214 178.08302326 310 213 C306.02084841 213.02886984 302.04172347 213.04675406 298.0625 213.0625 C296.92619141 213.07087891 295.78988281 213.07925781 294.61914062 213.08789062 C293.53955078 213.09111328 292.45996094 213.09433594 291.34765625 213.09765625 C290.34742432 213.10289307 289.34719238 213.10812988 288.31665039 213.11352539 C286 213 286 213 285 212 C284.54917539 209.231084 284.14181569 206.46483792 283.75 203.6875 C278.8067345 171.13278575 266.43599012 140.66289348 247 114 C246.59571777 113.4416748 246.19143555 112.88334961 245.77490234 112.30810547 C240.39080361 104.93511255 234.55480799 98.15893962 228.25 91.55859375 C226.33862065 89.38506342 225.09668721 87.64825038 224 85 C223.34 85 222.68 85 222 85 C219.70137153 82.83658497 217.5413135 80.57932341 215.38671875 78.2734375 C169.20608086 30.21392997 97.6171764 12.51814324 34 3 C32.82759766 2.81824219 31.65519531 2.63648438 30.44726562 2.44921875 C27.08369671 2.01090665 23.7991475 1.79710063 20.41015625 1.68359375 C19.21455078 1.64169922 18.01894531 1.59980469 16.78710938 1.55664062 C15.55798828 1.51732422 14.32886719 1.47800781 13.0625 1.4375 C11.80630859 1.39431641 10.55011719 1.35113281 9.25585938 1.30664062 C6.17067032 1.20106381 3.08540737 1.09895449 0 1 C0 0.67 0 0.34 0 0 Z " fill="#000000" transform="translate(1068,250)"/>
<path d="M0 0 C9.9 0 19.8 0 30 0 C29.875 11.5625 29.875 11.5625 29.81982422 15.16625977 C29.79016752 20.84838806 30.04869875 25.64544499 32 31 C45.20215841 32.32021584 55.22743377 23.98973321 65 16 C72.0214525 10.10304135 72.0214525 10.10304135 77.625 2.9375 C78.953125 1.2421875 78.953125 1.2421875 81 0 C86.39935517 -0.59156282 91.59326501 -0.40454193 97 0 C84.82958129 16.10790711 64.9230956 26.55860837 47 35 C46.35208496 35.31259766 45.70416992 35.62519531 45.03662109 35.94726562 C29.86391496 43.24103727 13.8915438 48.51994828 -2 54 C-2.90532366 50.94582929 -3.07749797 48.34796567 -2.94580078 45.17138672 C-2.90891144 44.21714813 -2.87202209 43.26290955 -2.83401489 42.27975464 C-2.7882431 41.25673248 -2.74247131 40.23371033 -2.6953125 39.1796875 C-2.65187714 38.12468048 -2.60844177 37.06967346 -2.56369019 35.98269653 C-2.47057268 33.75510903 -2.37456497 31.52764073 -2.27587891 29.30029297 C-2.1252849 25.88146779 -1.98580677 22.46231691 -1.84765625 19.04296875 C-1.75587101 16.88018011 -1.66344505 14.71741854 -1.5703125 12.5546875 C-1.52858917 11.52761688 -1.48686584 10.50054626 -1.44387817 9.44235229 C-1.37908768 8.0204509 -1.37908768 8.0204509 -1.31298828 6.56982422 C-1.2766629 5.73361542 -1.24033752 4.89740662 -1.20291138 4.03585815 C-1 2 -1 2 0 0 Z " fill="#000000" transform="translate(1119,548)"/>
<path d="M0 0 C2.79744819 1.36713074 4.80552503 0.28510882 7.6640625 -0.5546875 C11.39077695 -1.41319764 15.10123297 -1.22869212 18.90234375 -1.0703125 C19.39734375 1.4046875 19.39734375 1.4046875 19.90234375 3.9296875 C17.05180939 6.43470254 14.78194574 7.97662232 11.21484375 9.3671875 C7.73082927 10.60813613 7.73082927 10.60813613 6.46484375 13.6171875 C6.18640625 14.761875 6.18640625 14.761875 5.90234375 15.9296875 C6.43859375 15.5996875 6.97484375 15.2696875 7.52734375 14.9296875 C10.46514092 13.69272027 12.74389258 13.71912409 15.90234375 13.9296875 C16.90234375 14.9296875 16.90234375 14.9296875 17.33984375 17.2421875 C16.90234375 19.9296875 16.90234375 19.9296875 14.21484375 22.1796875 C11.28952171 23.72514065 9.15351082 24.54719726 5.90234375 24.9296875 C5.90234375 26.5796875 5.90234375 28.2296875 5.90234375 29.9296875 C6.56234375 29.5996875 7.22234375 29.2696875 7.90234375 28.9296875 C11.797564 27.63128075 14.80371517 27.72475607 18.90234375 27.9296875 C19.90234375 28.9296875 19.90234375 28.9296875 20.33984375 31.2421875 C19.90234375 33.9296875 19.90234375 33.9296875 17.33984375 36.0546875 C8.30173399 40.98456555 8.30173399 40.98456555 3.71484375 40.8046875 C0.68950926 39.86347233 -0.86760183 39.17358405 -3.09765625 36.9296875 C-3.55175781 33.92700195 -3.55175781 33.92700195 -3.48828125 30.29296875 C-3.46894531 28.34487305 -3.46894531 28.34487305 -3.44921875 26.35742188 C-3.41579726 24.98566647 -3.38193748 23.61392169 -3.34765625 22.2421875 C-3.32759001 20.85874938 -3.30933944 19.47528366 -3.29296875 18.09179688 C-3.24574832 14.70373101 -3.17989694 11.31705509 -3.09765625 7.9296875 C-4.74765625 8.5896875 -6.39765625 9.2496875 -8.09765625 9.9296875 C-8.11223877 10.72141357 -8.12682129 11.51313965 -8.1418457 12.32885742 C-8.21643981 15.92545293 -8.31306458 19.52113193 -8.41015625 23.1171875 C-8.43271484 24.36306641 -8.45527344 25.60894531 -8.47851562 26.89257812 C-8.51396484 28.09462891 -8.54941406 29.29667969 -8.5859375 30.53515625 C-8.61212158 31.64012451 -8.63830566 32.74509277 -8.6652832 33.88354492 C-9.14021404 37.22951445 -10.17689749 39.18159377 -12.09765625 41.9296875 C-13.97265625 41.6171875 -13.97265625 41.6171875 -16.09765625 40.9296875 C-18.48877834 37.34300437 -18.33146652 35.76572181 -18.29296875 31.51171875 C-18.28652344 30.25810547 -18.28007813 29.00449219 -18.2734375 27.71289062 C-18.25667969 26.40255859 -18.23992187 25.09222656 -18.22265625 23.7421875 C-18.21262264 22.40690763 -18.20349745 21.07162061 -18.1953125 19.73632812 C-18.17170917 16.46726735 -18.13878219 13.19856722 -18.09765625 9.9296875 C-20.73765625 9.9296875 -23.37765625 9.9296875 -26.09765625 9.9296875 C-26.42765625 8.2796875 -26.75765625 6.6296875 -27.09765625 4.9296875 C-20.11247792 -0.30919625 -8.40128254 -4.28668793 0 0 Z " fill="#030507" transform="translate(1231.09765625,484.0703125)"/>
<path d="M0 0 C1.9375 0.375 1.9375 0.375 4 1 C8.10409204 9.20818408 4.24538296 23.39685257 2 32 C0.87832047 34.94692148 -0.34037202 37.31025811 -2 40 C-3.32 40 -4.64 40 -6 40 C-10.16474492 35.35928423 -10.73425934 30.97916482 -11 25 C-11.66 25 -12.32 25 -13 25 C-13.0825 25.825 -13.165 26.65 -13.25 27.5 C-14.33793098 32.57701123 -16.29492748 37.29492748 -20 41 C-21.984375 40.90625 -21.984375 40.90625 -24 40 C-28.94587864 32.79489285 -28.36316706 23.21012345 -28.375 14.875 C-28.37661133 13.74771484 -28.37822266 12.62042969 -28.37988281 11.45898438 C-28.2679839 3.2679839 -28.2679839 3.2679839 -26 1 C-24 1.125 -24 1.125 -22 2 C-19.96834984 5.17171284 -19.64031635 8.03557114 -19.375 11.75 C-19.30023437 12.73484375 -19.22546875 13.7196875 -19.1484375 14.734375 C-19.07496094 15.85585938 -19.07496094 15.85585938 -19 17 C-18.81824219 16.33613281 -18.63648438 15.67226563 -18.44921875 14.98828125 C-17.10476709 10.26546387 -15.85015263 6.07164661 -13 2 C-12.01 2.33 -11.02 2.66 -10 3 C-9.05078125 4.9609375 -9.05078125 4.9609375 -8.3125 7.375 C-8.06113281 8.16648437 -7.80976562 8.95796875 -7.55078125 9.7734375 C-7 12 -7 12 -7 15 C-6.34 15 -5.68 15 -5 15 C-4.83564453 13.87851562 -4.83564453 13.87851562 -4.66796875 12.734375 C-4.50941406 11.74953125 -4.35085938 10.7646875 -4.1875 9.75 C-4.03667969 8.77546875 -3.88585938 7.8009375 -3.73046875 6.796875 C-2.96781736 3.87677662 -1.96225899 2.25794185 0 0 Z " fill="#020507" transform="translate(1383,484)"/>
<path d="M0 0 C3.875 0.875 3.875 0.875 5 2 C5.94734435 15.1352938 4.93092584 29.52812276 -2 41 C-4.48157221 40.63658984 -5.66288213 40.45169387 -7.1953125 38.3984375 C-9.22281337 33.98564149 -10.82120635 29.71517462 -12 25 C-12.32613281 25.90363281 -12.65226562 26.80726563 -12.98828125 27.73828125 C-13.42527344 28.91777344 -13.86226562 30.09726562 -14.3125 31.3125 C-14.74175781 32.48425781 -15.17101563 33.65601563 -15.61328125 34.86328125 C-16.83948562 37.636921 -17.68843432 39.12227656 -20 41 C-21.8125 40.5 -21.8125 40.5 -24 39 C-28.03354344 30.48474162 -28.08965152 21.87030938 -28.1875 12.625 C-28.20063232 11.82723145 -28.21376465 11.02946289 -28.22729492 10.20751953 C-28.23272226 6.2856425 -28.22389377 4.33584066 -26 1 C-24.1875 1.0625 -24.1875 1.0625 -22 2 C-20.169826 5.59256377 -18.92311263 9.09186894 -18 13 C-17.72285156 12.37351562 -17.44570312 11.74703125 -17.16015625 11.1015625 C-16.61681641 9.87566406 -16.61681641 9.87566406 -16.0625 8.625 C-15.70285156 7.81289063 -15.34320312 7.00078125 -14.97265625 6.1640625 C-14.3430097 4.76316215 -13.68687358 3.37374716 -13 2 C-12.01 2.33 -11.02 2.66 -10 3 C-8.83203125 5.50390625 -8.83203125 5.50390625 -7.8125 8.5625 C-7.46832031 9.57441406 -7.12414063 10.58632813 -6.76953125 11.62890625 C-6.51558594 12.41136719 -6.26164062 13.19382812 -6 14 C-5.81824219 13.40832031 -5.63648438 12.81664062 -5.44921875 12.20703125 C-4.04332943 7.787492 -2.62472819 3.87459875 0 0 Z " fill="#020507" transform="translate(1173,484)"/>
<path d="M0 0 C4.44285625 2.68247924 6.91344516 5.34063232 8.52734375 10.43359375 C10.53564754 21.33818542 9.47069471 30.37674857 3.3125 39.5 C-0.31867789 41.85535863 -3.70026539 42.51480802 -8 42 C-11.93399074 40.19534782 -14.23144183 37.59455306 -16.09765625 33.72265625 C-19.19424069 24.60573555 -18.86393201 16.33150698 -15.2578125 7.4296875 C-12.01408213 1.16384808 -7.01394344 -1.70798623 0 0 Z " fill="#020507" transform="translate(1344,484)"/>
<path d="M0 0 C2.77893499 2.20680131 4.02001951 3.84155254 4.4609375 7.39453125 C4.56967972 16.03953812 4.56967972 16.03953812 1.9375 19.875 C-0.17059758 22.4315631 -0.17059758 22.4315631 0.52734375 24.7265625 C1.09889468 26.25947791 1.69596013 27.78308944 2.31640625 29.296875 C3.61804694 33.14520399 3.31691961 36.65718829 3.125 40.6875 C0.65 41.1825 0.65 41.1825 -1.875 41.6875 C-4.08357005 38.59550194 -5.77101154 36.03196177 -6.875 32.375 C-7.205 31.488125 -7.535 30.60125 -7.875 29.6875 C-9.90743548 28.71872943 -9.90743548 28.71872943 -11.875 28.6875 C-11.813125 29.71875 -11.75125 30.75 -11.6875 31.8125 C-11.88635595 35.92218973 -12.81967803 38.17632496 -14.875 41.6875 C-17.3125 41.3125 -17.3125 41.3125 -19.875 40.6875 C-21.41897786 37.59954428 -21.07969554 34.33250947 -21.11328125 30.94140625 C-21.121353 30.17448959 -21.12942474 29.40757294 -21.13774109 28.61741638 C-21.15157652 26.99423481 -21.1623011 25.37102421 -21.17016602 23.74780273 C-21.18741012 21.26295192 -21.23130166 18.7794212 -21.27539062 16.29492188 C-21.28551496 14.71875979 -21.29403188 13.1425864 -21.30078125 11.56640625 C-21.31828934 10.82258194 -21.33579742 10.07875763 -21.35383606 9.31239319 C-21.33211856 4.16026301 -21.33211856 4.16026301 -19.02026367 1.76928711 C-12.84287636 -1.34576959 -6.54888085 -2.98970647 0 0 Z " fill="#010305" transform="translate(1273.875,484.3125)"/>
<path d="M0 0 C4.34906605 1.02796107 6.1055015 3.18533542 8.4375 6.8125 C9.4174662 9.39579199 10.15038926 11.65317264 10.75 14.3125 C10.91314697 15.00448486 11.07629395 15.69646973 11.24438477 16.40942383 C12.86448964 23.84528981 14.57588372 32.75996206 10.91015625 39.70703125 C10.42417969 40.40183594 9.93820312 41.09664062 9.4375 41.8125 C6.57025314 41.23905063 5.5760485 40.9510485 3.4375 38.8125 C3.0234375 36.6484375 3.0234375 36.6484375 2.8125 34.1875 C2.73773437 33.37023437 2.66296875 32.55296875 2.5859375 31.7109375 C2.51246094 30.77121094 2.51246094 30.77121094 2.4375 29.8125 C0.1275 30.1425 -2.1825 30.4725 -4.5625 30.8125 C-5.5525 33.7825 -6.5425 36.7525 -7.5625 39.8125 C-9.9375 40.4375 -9.9375 40.4375 -12.5625 40.8125 C-15.3783032 37.9966968 -14.92943556 36.13080702 -15 32.1875 C-14.99273244 22.27455066 -12.73898154 11.38114205 -6.6875 3.3125 C-4.33346114 1.01897628 -3.3937894 0.77402214 0 0 Z " fill="#020406" transform="translate(1193.5625,483.1875)"/>
<path d="M0 0 C0.33 1.32 0.66 2.64 1 4 C-3.08806189 7.84616474 -6.40717158 10.63589551 -12 12 C-11.67 13.32 -11.34 14.64 -11 16 C-6.545 15.505 -6.545 15.505 -2 15 C-1.67 16.65 -1.34 18.3 -1 20 C-7.14285714 25.57142857 -7.14285714 25.57142857 -12 26 C-11.96519531 26.66386719 -11.93039062 27.32773437 -11.89453125 28.01171875 C-11.62565905 36.78207381 -11.62565905 36.78207381 -15 41 C-16.32 40.67 -17.64 40.34 -19 40 C-21.45573633 33.23175109 -21.5104734 26.5214598 -21.625 19.375 C-21.68300781 18.16070312 -21.74101563 16.94640625 -21.80078125 15.6953125 C-21.92495784 7.02205502 -21.92495784 7.02205502 -19.26269531 4.08032227 C-13.01575709 0.10454558 -7.21050711 -0.12221198 0 0 Z " fill="#020406" transform="translate(1301,483)"/>
<path d="M0 0 C1.9375 0.25 1.9375 0.25 4 1 C6.36008817 4.54013225 6.23463644 6.01121955 6.1953125 10.19921875 C6.18564453 12.01196289 6.18564453 12.01196289 6.17578125 13.86132812 C6.15902344 15.12396484 6.14226562 16.38660156 6.125 17.6875 C6.11597656 18.96173828 6.10695313 20.23597656 6.09765625 21.54882812 C6.07405641 24.69940627 6.04113194 27.84960983 6 31 C6.77504883 30.67475342 7.55009766 30.34950684 8.34863281 30.0144043 C11.04340688 28.98339267 12.88982997 28.75971163 15.75 28.8125 C16.52859375 28.81894531 17.3071875 28.82539062 18.109375 28.83203125 C20 29 20 29 21 30 C21.4375 32.3125 21.4375 32.3125 21 35 C14.37151496 40.65846284 7.3233827 41.27954084 -1 41 C-3.87771698 34.52894329 -4.46217684 29.16695174 -4.375 22.125 C-4.38660156 21.19558594 -4.39820313 20.26617187 -4.41015625 19.30859375 C-4.34755777 4.34755777 -4.34755777 4.34755777 0 0 Z " fill="#020507" transform="translate(1305,484)"/>
<path d="M0 0 C0.99 0.33 1.98 0.66 3 1 C3 11.23 3 21.46 3 32 C1.25372522 29.38058783 0.61277612 27.96175123 0 25 C-4.51617599 24.92345464 -8.59085217 24.89771304 -13 26 C-13 24.35 -13 22.7 -13 21 C-9.7 19.35 -6.4 17.7 -3 16 C-3 14.35 -3 12.7 -3 11 C-6.5219721 10.91995518 -9.61981469 10.95994298 -13 12 C-12.84375 9.703125 -12.84375 9.703125 -12 7 C-9.53125 5.234375 -9.53125 5.234375 -6.5 3.75 C-5.4996875 3.24984375 -4.499375 2.7496875 -3.46875 2.234375 C-2.6540625 1.82703125 -1.839375 1.4196875 -1 1 C-0.67 0.67 -0.34 0.34 0 0 Z " fill="#5197D1" transform="translate(1250,488)"/>
<path d="M0 0 C1.32 0 2.64 0 4 0 C6.37221047 4.59615778 6.47522861 8.94612651 6 14 C5 17.0625 5 17.0625 4 19 C2.68 19 1.36 19 0 19 C-1.6867443 15.31861363 -2.27227584 12.41806576 -2.25 8.375 C-2.25515625 7.43398438 -2.2603125 6.49296875 -2.265625 5.5234375 C-2 3 -2 3 0 0 Z " fill="#529AD5" transform="translate(1338,496)"/>
<path d="M0 0 C0.33 0 0.66 0 1 0 C0.42978066 5.3503559 -0.20734361 10.67787852 -1 16 C-1.66 15.01 -2.32 14.02 -3 13 C-6.3 13.33 -9.6 13.66 -13 14 C-13 12.35 -13 10.7 -13 9 C-12.39671875 8.68546875 -11.7934375 8.3709375 -11.171875 8.046875 C-6.87633776 5.74668409 -3.27643068 3.68598452 0 0 Z " fill="#549EDA" transform="translate(1302,486)"/>
<path d="M0 0 C3 1 3 1 4 3 C4.13415472 5.6723621 4.04318541 8.32250488 4 11 C2.02 11 0.04 11 -2 11 C-2.28571429 3.57142857 -2.28571429 3.57142857 0 0 Z " fill="#4F95CD" transform="translate(1192,494)"/>
<path d="M0 0 C1.98 0 3.96 0 6 0 C6.75 1.75 6.75 1.75 7 4 C4.78132865 6.77333918 3.39379675 7.86873442 0 9 C0 6.03 0 3.06 0 0 Z " fill="#559FDC" transform="translate(1262,494)"/>
</svg>
